<?xml version="1.0" encoding="utf-8"?>
<!-- Generator: Adobe Illustrator 24.3.0, SVG Export Plug-In . SVG Version: 6.00 Build 0)  -->
<svg version="1.1" id="Layer_1" xmlns="http://www.w3.org/2000/svg" xmlns:xlink="http://www.w3.org/1999/xlink" x="0px" y="0px"
	 viewBox="0 0 100 100" style="enable-background:new 0 0 100 100;" xml:space="preserve">
<style type="text/css">
	.st0{fill:#1E3C60;}
	.st1{display:none;}
	.st2{display:inline;fill:#AC3E39;}
</style>
<g id="opportunity">
	<path class="st0" d="M52.3,81.3c-0.9,3.9-1.5,8.5-1.8,13.3c-0.6-4.8-1.3-9.3-2.4-13.3c-15.4-0.9-28-13.3-28.9-29
		c-4.3-1-8.8-1.9-13.3-2.2H5.5c4.8-0.3,9.3-0.8,13.6-1.7C20,32.6,32.3,20,47.7,19c1.2-4.2,1.5-8.4,2-13.3V5.5
		c0.4,4.8,1.1,9.4,2.2,13.6c15.7,1,28,13.3,29.3,28.7c4,1.2,8.5,2.4,13.3,2.4c-4.8,0.3-9.3,0.7-13.3,1.9
		C80.3,67.7,67.7,80,52.3,81.3 M24.2,46.6c11.2-4.3,18.2-11.8,22-22.3C34.7,26,25.7,35.1,24.2,46.6 M46.5,75.8
		c-4.2-10.9-11.8-18.1-22.4-22C26,65.3,35.1,74.3,46.5,75.8 M50.2,71.3c2.1-4.5,4.5-8.4,7.8-12.1c4-3.6,8.2-6.9,13.3-9.1
		c-4.5-2.1-8.4-4.8-12.1-8.1c-3.6-3.6-6.9-8.1-9.3-13.3c-1.8,4.5-4.5,8.8-7.8,12.1c-3.6,4-8.2,6.9-13.3,9.3
		c4.5,2.1,8.7,4.8,12.1,7.9C44.7,61.9,47.7,66.1,50.2,71.3 M53.8,24.3c4.2,11.2,11.7,18,22,22C74,34.8,64.9,26,53.8,24.3 M75.8,53.8
		c-10.9,4.2-18.2,11.7-22,22C65.3,74.3,74.3,65.3,75.8,53.8"/>
</g>
<g id="complication4" class="st1">
	<path class="st2" d="M30.9,52l-5.6,7.8l-22-3.2l19.5-10.3L30.9,52z M33.1,38.8l-9.3,2.5L9,25.1l21.7,4.5L33.1,38.8z M27.7,64.4
		l9.6-1l1.2,9.9L19.6,84.6L27.7,64.4z M43.5,30.3L34.6,26L33.9,4l13.8,17.5L43.5,30.3z M43.1,74.7l6.8-6.8l7.1,6.8L49.8,96
		L43.1,74.7z M65.4,26l-8.9,4.3l-4.2-8.8L66.1,4L65.4,26z M62.7,63.4l9.6,1l8.1,20.2L61.5,73.3L62.7,63.4z M91,25.1L76.1,41.3
		l-9.3-2.5l2.5-9.2L91,25.1z M69.1,52l8.1-5.8l19.5,10.3l-22,3.2L69.1,52z"/>
	<path class="st2" d="M38.5,51.3L50,34.9h6.2v15.7h5.3v4.2h-5.3v6.4h-4.8v-6.4h-13L38.5,51.3L38.5,51.3z M51.5,50.5V40.2l-7.3,10.3
		H51.5z"/>
</g>
<g id="complication2" class="st1">
	<path class="st2" d="M30.9,52l-5.6,7.8l-22-3.2l19.5-10.3L30.9,52z M33.1,38.8l-9.3,2.5L9,25.1l21.7,4.5L33.1,38.8z M27.7,64.4
		l9.6-1l1.2,9.9L19.6,84.6L27.7,64.4z M43.5,30.3L34.6,26L33.9,4l13.8,17.5L43.5,30.3z M43.1,74.7l6.8-6.8l7.1,6.8L49.8,96
		L43.1,74.7z M65.4,26l-8.9,4.3l-4.2-8.8L66.1,4L65.4,26z M62.7,63.4l9.6,1l8.1,20.2L61.5,73.3L62.7,63.4z M91,25.1L76.1,41.3
		l-9.3-2.5l2.5-9.2L91,25.1z M69.1,52l8.1-5.8l19.5,10.3l-22,3.2L69.1,52z"/>
	<path class="st2" d="M40.6,59.8c0-4.8,0.9-8.3,6.7-11.3c1.2-0.7,2.6-1.4,3.8-2c2.5-1.2,3.2-2.1,3.2-3.9c0-2.4-1.7-3.2-5-3.2
		c-1.7,0-4.6,0.4-7.4,1.4v-4.9c2.2-0.8,6-1.2,7.8-1.2c7.2,0,9.7,3.1,9.7,7.6c0,2.9-0.9,5.4-5.5,7.6c-1.2,0.6-2.9,1.4-4.1,2.1
		c-2.9,1.5-3.6,2.8-3.8,4.6h13.7v4.7H40.6V59.8z"/>
</g>
</svg>
