<?xml version="1.0" encoding="UTF-8" standalone="no"?><!DOCTYPE svg PUBLIC "-//W3C//DTD SVG 1.1//EN" "http://www.w3.org/Graphics/SVG/1.1/DTD/svg11.dtd"><svg width="100%" height="100%" viewBox="0 0 325 125" version="1.1" xmlns="http://www.w3.org/2000/svg" xmlns:xlink="http://www.w3.org/1999/xlink" xml:space="preserve" xmlns:serif="http://www.serif.com/" style="fill-rule:evenodd;clip-rule:evenodd;stroke-linejoin:round;stroke-miterlimit:2;"><path d="M325,29.167c-2.917,0 -5.833,-0.417 -8.333,-1.25l0,-19.583l-19.583,0c-0.833,-2.5 -1.25,-5.417 -1.25,-8.333l-266.667,0c-0,2.917 -0.417,5.833 -1.25,8.333l-19.583,0l0,19.583c-2.5,0.833 -5.417,1.25 -8.333,1.25l0,66.667c2.917,0 5.833,0.417 8.333,1.25l0,19.583l19.583,0c0.833,2.5 1.25,5.417 1.25,8.333l266.667,0c0,-2.917 0.417,-5.833 1.25,-8.333l19.583,0l0,-19.583c2.5,-0.833 5.417,-1.25 8.333,-1.25l0,-66.667Zm-12.5,-16.667l0,13.75c-6.25,-2.917 -10.833,-7.917 -13.75,-13.75l13.75,0Zm-300,0l13.75,0c-2.917,6.25 -7.5,10.833 -13.75,13.75l0,-13.75Zm0,100l0,-13.75c6.25,2.917 10.833,7.917 13.75,13.75l-13.75,0Zm300,0l-13.75,0c2.917,-6.25 7.917,-10.833 13.75,-13.75l0,13.75Zm4.167,-24.167c-14.167,3.333 -25,14.167 -28.333,28.333l-251.667,0c-3.333,-14.167 -14.167,-25 -28.333,-28.333l0,-51.667c14.167,-3.333 25,-14.167 28.333,-28.333l251.667,-0c3.333,14.167 14.167,25 28.333,28.333l0,51.667Z" style="fill-rule:nonzero;"/></svg>