<?xml version="1.0" encoding="utf-8"?>
<!-- Generator: Adobe Illustrator 24.3.0, SVG Export Plug-In . SVG Version: 6.00 Build 0)  -->
<svg version="1.1" xmlns="http://www.w3.org/2000/svg" xmlns:xlink="http://www.w3.org/1999/xlink" x="0px" y="0px"
	 viewBox="0 0 550 105" style="enable-background:new 0 0 550 105;" xml:space="preserve">
<style type="text/css">
	.st0{display:none;}
	.st1{display:inline;}
	.st2{fill:url(#SVGID_1_);}
	.st3{fill:url(#SVGID_2_);}
	.st4{fill:url(#SVGID_3_);}
</style>
<g id="Layer_1" class="st0">
	
		<image style="display:inline;overflow:visible;" width="1057" height="317" xlink:href="../workfiles/ref.png"  transform="matrix(0.473 0 0 0.473 0 5)">
	</image>
</g>
<g id="guides">
</g>
<g id="separated" class="st0">
	<g class="st1">
		<path d="M60,29c19.9,0,36,16.1,36,36s-16.1,36-36,36S24,84.9,24,65S40.1,29,60,29 M60,25c-22.1,0-40,17.9-40,40s17.9,40,40,40
			s40-17.9,40-40S82.1,25,60,25L60,25z"/>
	</g>
	<g class="st1">
		<rect x="93" y="43" width="407" height="2"/>
	</g>
	<g class="st1">
		<rect x="93" y="85" width="407" height="2"/>
	</g>
	<g class="st1">
		<polygon points="105,112 500,112 500,110 106,110 88,92 87,94 		"/>
	</g>
	<g class="st1">
		<polygon points="14,21 32,39 33,37 15,19 0,19 0,21 		"/>
	</g>
	<polygon class="st1" points="102.5,117 500,117 500,114 104,114 84,94 82.5,97 	"/>
	<polygon class="st1" points="11.5,26 29.5,44 31,41 13,23 0,23 0,26 	"/>
</g>
<g id="combined">
	<path d="M108,102L85.7,78.7c0.5-0.5,1.1-0.9,1.6-1.4L115,105l1-2L88.8,75.8c1.7-1.8,3.3-3.7,4.6-5.8H98v-2h-3.4
		c3.4-5.9,5.4-12.7,5.4-20s-2-14.1-5.4-20H98v-2h-4.6C86.2,15.2,74,8,60,8c-10.8,0-20.6,4.3-27.8,11.2L13,0H0v2h12l18.7,18.7
		c-0.5,0.5-1,1-1.4,1.6L11,4H0v3h9.5l17.9,17.9C22.7,31.4,20,39.4,20,48c0,22.1,17.9,40,40,40c8.6,0,16.6-2.7,23.1-7.4l23.4,24.4
		L108,102z M60,84c-19.9,0-36-16.1-36-36s16.1-36,36-36s36,16.1,36,36S79.9,84,60,84z"/>
	<linearGradient id="SVGID_1_" gradientUnits="userSpaceOnUse" x1="20" y1="103.5" x2="280" y2="103.5">
		<stop  offset="0" style="stop-color:#000000;stop-opacity:0"/>
		<stop  offset="0.35" style="stop-color:#000000"/>
		<stop  offset="0.5" style="stop-color:#000000"/>
		<stop  offset="0.65" style="stop-color:#000000"/>
		<stop  offset="1" style="stop-color:#000000;stop-opacity:0"/>
	</linearGradient>
	<rect x="20" y="102" class="st2" width="260" height="3"/>
	<linearGradient id="SVGID_2_" gradientUnits="userSpaceOnUse" x1="92" y1="26" x2="532" y2="26">
		<stop  offset="0" style="stop-color:#000000"/>
		<stop  offset="0.6" style="stop-color:#000000"/>
		<stop  offset="1" style="stop-color:#000000;stop-opacity:0"/>
	</linearGradient>
	<rect x="92" y="24" class="st3" width="440" height="4"/>
	<linearGradient id="SVGID_3_" gradientUnits="userSpaceOnUse" x1="92" y1="70" x2="532" y2="70">
		<stop  offset="0" style="stop-color:#000000"/>
		<stop  offset="0.6" style="stop-color:#000000"/>
		<stop  offset="1" style="stop-color:#000000;stop-opacity:0"/>
	</linearGradient>
	<rect x="92" y="68" class="st4" width="440" height="4"/>
</g>
</svg>
