<svg xmlns="http://www.w3.org/2000/svg" viewBox="0 0 22 22"><defs><style>.cls-1{fill:#231f20;}</style></defs><g id="Layer_2" data-name="Layer 2"><g id="rest_button_scene"><path class="cls-1" d="M11,0A11,11,0,1,0,22,11,11,11,0,0,0,11,0Zm2.9,4.88h2.51L12.94,8.35l0,0H10.4L13.87,4.9Zm-4.38,0H12L8.57,8.35l0,0H6L9.5,4.9ZM4,6.62A1.74,1.74,0,0,1,5.75,4.88H7.67L4.19,8.35l0,0H4Zm14,8.76a1.74,1.74,0,0,1-1.75,1.74H5.75A1.74,1.74,0,0,1,4,15.38V9.25H18Zm0-7H14.77l2.85-2.85A1.74,1.74,0,0,1,18,6.62Z"/><path class="cls-1" d="M10,15.71l3.47-2a.59.59,0,0,0,0-1l-3.47-2a.59.59,0,0,0-.89.51v4A.6.6,0,0,0,10,15.71Z"/></g></g></svg>