<svg xmlns="http://www.w3.org/2000/svg" viewBox="0 0 22 22"><defs><style>.cls-1{fill:#231f20;}</style></defs><g id="Layer_2" data-name="Layer 2"><g id="rest_button_short"><polygon class="cls-1" points="7.43 8.59 7.44 8.59 7.45 8.59 7.44 8.57 7.43 8.59"/><path class="cls-1" d="M11,0A11,11,0,1,0,22,11,11,11,0,0,0,11,0ZM8.31,11v6.13a.88.88,0,1,1-1.75,0V11a2.4,2.4,0,0,1-2.18-2.4,2.29,2.29,0,0,1,0-.52l.83-3.73A.45.45,0,0,1,5.73,4a.44.44,0,0,1,.39.44V8.11a.28.28,0,0,0,.27.27.26.26,0,0,0,.26-.25L7,4.4a.44.44,0,0,1,.87,0l.34,3.73a.28.28,0,0,0,.27.25.28.28,0,0,0,.27-.27V4.44A.44.44,0,0,1,9.14,4a.44.44,0,0,1,.47.34l.83,3.73a2.31,2.31,0,0,1,.06.52A2.41,2.41,0,0,1,8.31,11Zm8.31-.43v6.56a.87.87,0,1,1-1.74,0v-3.5H14a1.74,1.74,0,0,1-1.75-1.74V8.81c0-3.93,3.06-4.81,3.5-4.81a.87.87,0,0,1,.87.88Z"/></g></g></svg>