<?xml version="1.0" encoding="utf-8"?>
<!-- Generator: Adobe Illustrator 24.3.0, SVG Export Plug-In . SVG Version: 6.00 Build 0)  -->
<svg version="1.1" xmlns="http://www.w3.org/2000/svg" xmlns:xlink="http://www.w3.org/1999/xlink" x="0px" y="0px"
	 viewBox="0 0 512 512" style="enable-background:new 0 0 512 512;" xml:space="preserve">
<style type="text/css">
	.st0{display:none;}
	.st1{display:inline;}
</style>
<g id="impact" class="st0">
	<g transform="translate(0,0)" class="st1">
		<path d="M94.4,20.1c97.5,141.9,12.7,131.2-26.1,143.2c38.8,52.9,16.6,102.6-44.5,133.8c52.5,21.1,122.2,30.5,42,141.7
			c79.6-45,134.7-48.8,127.1,53.1c57.8-58.5,133-88,208.1-38.5c-8.6-73.9,12.7-106.3,86.9-74.4c-79.6-73-46.7-116.4,0.5-158.8
			c-81.5-3.2-92.9-65.5-89.9-139.9c-49.2,53.5-86.5,47.8-104-57C260.5,100.1,215,149.2,94.4,20.1L94.4,20.1z"/>
	</g>
</g>
<g id="energy" class="st0">
	<g class="st1">
		<path d="M346,121c0,90-90,105-90,180c0,30,30,75,75,75s75-45,45-120c45,30,60,60,60,90c0,75-75,150-180,150S76,451,76,361
			c-0.7-133.1,153.4-177.6,195-240c30-45,15-75-15-105C316,31,346,73,346,121z"/>
	</g>
</g>
<g id="keen" class="st0">
	<g class="st1">
		<path d="M348.5,17.7c4.2,0,8.5,0,12.8,0C4.3,52,211.6,314.3,494.3,243.4v29.3c-208.7,52-406.9-83.1-335.2-186.3
			c-74.3,54.5-10.9,228.8,217.4,261.3c-80.1-17.8-151.7-58-188.8-112.8v0c76.8,75.3,199.9,99.7,306.6,83.5v38.5l0,0v30
			c-103.6,18-230.5-10.8-317-98.2c64.3,92,199,149.5,317,142.6v62.9C114.7,494.2-76.9,236.8,63.8,100.4
			C-27.1,256,183.7,439.3,371.9,439.7c-251.7-38-382-321-181.3-403.9C234.3,24.5,286.7,18,348.5,17.7L348.5,17.7z"/>
	</g>
</g>
<g id="healing">
	<path d="M125.3,90.1C55.7,90.9,17.5,166.3,17.9,207.8c2,64,46.3,107.5,101.2,155.4c47.9,41.7,103,85.5,136.6,148.9
		c0.1-0.1,0.1-0.3,0.3-0.4c0.1,0.1,0.1,0.3,0.3,0.4c33.6-63.3,88.6-107.2,136.6-148.9c54.9-47.9,99.2-91.4,101.2-155.4
		c0.4-41.5-37.8-116.9-107.3-117.7c-51.4-0.7-111.8,34.8-130.7,91.6C237.1,124.8,176.7,89.4,125.3,90.1L125.3,90.1z"/>
</g>
<g id="spirit" class="st0">
	<g transform="translate(0,0)" class="st1">
		<path d="M333.9,19.2c-465.6,189.6,64.6,230.1-96,473.5C599.2,250,35.4,259.8,333.9,19.2L333.9,19.2z M345.9,51.7
			C141,189.1,497.5,256.6,380.2,412C593.5,256,245,206.7,345.9,51.7L345.9,51.7z M125.8,105.2c-193.8,135,116.1,215.8,67.9,367
			C310.4,288.7,16.6,271.3,125.8,105.2z"/>
	</g>
</g>
<g id="vital" class="st0">
	<g transform="translate(0,0)" class="st1">
		<path d="M426.7,24.1c-9,0.1-18.7,5.8-24.3,19.4c-11.1,26.8-31.9,59.2-58.6,93.5c10.6,8.7,19.9,18.9,27.5,30.3
			c35.1-26.6,68.9-46.8,98.1-56.7c44.6-15.2,12-69.7-35.3-35.3C460.9,47.3,445.1,23.9,426.7,24.1L426.7,24.1z M85.4,24.1
			c-18.5,0.4-37.6,24-16.3,49.9C32.8,40.5,0.5,87.3,38.4,104.7c28.1,12.8,62.5,35.7,99.1,64.3c8.1-12.5,18.2-23.6,29.8-32.9
			c-26.8-35.7-48.4-69.8-61.8-98.5C101,27.9,93.3,23.9,85.4,24.1L85.4,24.1z M254.9,123.8c-67.1,0-121.3,54.2-121.3,121.3
			c0,44.7,24,83.6,59.9,104.7v56.4h18.7v-47.5c5.2,2,10.6,3.6,16.1,4.8v42.7H247v-40c5.2,0.3,10.5,0.3,15.7,0v40h18.7v-42.7
			c5.5-1.2,10.8-2.8,16.1-4.8v47.5h18.7v-56.3c35.9-21,60-60,60-104.7C376.3,178,322,123.8,254.9,123.8L254.9,123.8z M188.1,212
			c19.9,0,36,16.1,36,36s-16.1,36-36,36s-36-16.1-36-36S168.2,212,188.1,212z M321.6,212c19.9,0,36,16.1,36,36s-16.1,36-36,36
			c-19.9,0-36-16.1-36-36S301.8,212,321.6,212z M254.9,264.4l29.9,48.2H225L254.9,264.4L254.9,264.4z M147.6,334.9
			c-40.3,32.5-78.5,58.4-109.2,72.4c-37.9,17.3-5.6,64.1,30.7,30.7c-30.2,36.9,21.2,69,36.4,36.4c15.1-32.4,40.7-71.7,72.4-112.5
			C166.6,354.4,156.4,345.3,147.6,334.9L147.6,334.9z M360.8,336.6c-8.2,9.4-17.6,17.7-27.9,24.7c31.8,39.4,56.8,76.9,69.4,107.2
			c17.2,41.4,71.8,9.7,31.7-31.7c47.4,34.4,79.9-20.2,35.3-35.3C437.2,390.6,399.6,367.2,360.8,336.6L360.8,336.6z"/>
	</g>
</g>
</svg>
