<?xml version="1.0" encoding="utf-8"?>
<!-- Generator: Adobe Illustrator 24.3.0, SVG Export Plug-In . SVG Version: 6.00 Build 0)  -->
<svg version="1.1" xmlns="http://www.w3.org/2000/svg" xmlns:xlink="http://www.w3.org/1999/xlink" x="0px" y="0px"
	 viewBox="0 0 512 512" style="enable-background:new 0 0 512 512;" xml:space="preserve">
<style type="text/css">
	.st0{display:none;}
	.st1{display:inline;}
</style>
<g id="impact" class="st0">
	<g transform="translate(0,0)" class="st1">
		<path d="M94.4,20.1c97.5,141.9,12.7,131.2-26.1,143.2c38.8,52.9,16.6,102.6-44.5,133.8c52.5,21.1,122.2,30.5,42,141.7
			c79.6-45,134.7-48.8,127.1,53.1c57.8-58.5,133-88,208.1-38.5c-8.6-73.9,12.7-106.3,86.9-74.4c-79.6-73-46.7-116.4,0.5-158.8
			c-81.5-3.2-92.9-65.5-89.9-139.9c-49.2,53.5-86.5,47.8-104-57C260.5,100.1,215,149.2,94.4,20.1L94.4,20.1z"/>
	</g>
</g>
<g id="energy" class="st0">
	<g class="st1">
		<path d="M346,121c0,90-90,105-90,180c0,30,30,75,75,75s75-45,45-120c45,30,60,60,60,90c0,75-75,150-180,150S76,451,76,361
			c-0.7-133.1,153.4-177.6,195-240c30-45,15-75-15-105C316,31,346,73,346,121z"/>
	</g>
</g>
<g id="keen">
	<g>
		<path d="M348.5,17.7c4.2,0,8.5,0,12.8,0C4.3,52,211.6,314.3,494.3,243.4v29.3c-208.7,52-406.9-83.1-335.2-186.3
			c-74.3,54.5-10.9,228.8,217.4,261.3c-80.1-17.8-151.7-58-188.8-112.8v0c76.8,75.3,199.9,99.7,306.6,83.5v38.5l0,0v30
			c-103.6,18-230.5-10.8-317-98.2c64.3,92,199,149.5,317,142.6v62.9C114.7,494.2-76.9,236.8,63.8,100.4
			C-27.1,256,183.7,439.3,371.9,439.7c-251.7-38-382-321-181.3-403.9C234.3,24.5,286.7,18,348.5,17.7L348.5,17.7z"/>
	</g>
</g>
<g id="healing" class="st0">
	<path class="st1" d="M125.3,45C55.7,45.8,17.5,121.2,17.9,162.7c2,64,46.3,107.5,101.2,155.4c47.9,41.7,103,85.5,136.6,148.9
		c0.1-0.1,0.1-0.3,0.3-0.4c0.1,0.1,0.1,0.3,0.3,0.4c33.6-63.3,88.6-107.2,136.6-148.9c54.9-47.9,99.2-91.4,101.2-155.4
		c0.4-41.5-37.8-116.9-107.3-117.7c-51.4-0.7-111.8,34.8-130.7,91.6C237.1,79.8,176.7,44.4,125.3,45L125.3,45z"/>
</g>
<g id="spirit" class="st0">
	<g transform="translate(0,0)" class="st1">
		<path d="M333.9,19.2c-465.6,189.6,64.6,230.1-96,473.5C599.2,250,35.4,259.8,333.9,19.2L333.9,19.2z M345.9,51.7
			C141,189.1,497.5,256.6,380.2,412C593.5,256,245,206.7,345.9,51.7L345.9,51.7z M125.8,105.2c-193.8,135,116.1,215.8,67.9,367
			C310.4,288.7,16.6,271.3,125.8,105.2z"/>
	</g>
</g>
<g id="vital" class="st0">
	<g class="st1">
		<path d="M146.8,17.9c11.4-0.2,21.1,7.4,24.8,20.1h0c24.4-7.6,57.5-4.1,68.3,19.9c15.7-20.9,47.9-14,55.2,9.8
			c7.3,23.8-13.5,49.5-44.7,48.6c3.1,34-44.3,54.7-81.8,39.1c0.5,19.3-8.3,41.9-30.4,45c6.4,18.1-3.1,42-28.6,42
			c-31.5,0-38-36.3-21-53.1c-9.5-10.4-12.8-25.2-11.1-39.1C60.3,162.2,43,143.6,43.8,130c1.5-25,20.4-36,33.8-24.3
			c8.8-27.6,37.2-32,52.6-16.4c-1.4-7.4-0.2-13.1,5.3-19.3c-22.6-5.7-18.9-37.7-4.7-46.9C136.2,19.7,141.7,18,146.8,17.9L146.8,17.9
			z M78.5,23.1c22.7,0,22.9,34.7,0,34.7S55.8,23.1,78.5,23.1z M334.6,74.1c22.7,0,22.9,34.7,0,34.7
			C311.8,108.7,311.9,74.1,334.6,74.1z M260,182c-13.6,12.2-31.8,20.6-55.1,20.6c-11.5,0-18.4-7.5-20-13.5c-0.8-3-0.4-5.2,0.6-6.7
			c1-1.5,3-3.2,8.8-3.7c31-2.5,53.8-15.8,68.3-39.7c2.8-4.6,5-5.4,6.8-5.6c0.2,0,0.5,0,0.7,0v0c1.7,0.1,3.8,0.9,5.9,2.9
			c4.8,4.6,8.1,13.8,1.8,24.2c-1.4,2.3-2.8,4.5-4.4,6.7l14.2,26.4l34.4,59.6l153.6,87.7l0,0c11,6.4,16.5,14.8,17.5,24
			c1,9.3-2.5,20.2-13.1,31.5c-45.3,48.1-101.2,77.7-164.9,95.1c-15.6,4.3-26.5,2.6-33.2-2.1c-6.7-4.7-11-13.4-11-28.4v0l-0.2-177.6
			l-47.8-82.6 M35.9,172.7c22.7,0,22.9,34.7,0,34.7S13.2,172.7,35.9,172.7z M80.6,258.8c35.3,0,35.6,53.8,0,53.8
			S45.3,258.8,80.6,258.8L80.6,258.8z"/>
	</g>
</g>
</svg>
