<?xml version="1.0" encoding="UTF-8"?>
<svg id="Layer_2" data-name="Layer 2" xmlns="http://www.w3.org/2000/svg" viewBox="0 0 30.9 30.45">
  <defs>
    <style>
      .cls-1 {
        fill: #ad1f23;
      }
    </style>
  </defs>
  <g id="Layer_2-2" data-name="Layer 2">
    <path class="cls-1" d="M9.14,15.89l-1.86,2.59-7.28-1.07,6.46-3.42,2.68,1.91ZM9.87,11.51l-3.07.84L1.87,6.97l7.17,1.5.82,3.03ZM8.09,19.98l3.18-.32.39,3.27-6.26,3.75,2.69-6.69ZM13.29,8.7l-2.94-1.41-.22-7.29,4.55,5.79-1.39,2.91ZM13.15,23.4l2.25-2.25,2.35,2.25-2.35,7.05-2.25-7.05ZM20.55,7.29l-2.94,1.41-1.39-2.91L20.77,0l-.22,7.29ZM19.64,19.66l3.17.32,2.7,6.69-6.26-3.75.39-3.27ZM29.03,6.97l-4.93,5.37-3.07-.84.82-3.03,7.17-1.5ZM21.76,15.89l2.68-1.91,6.46,3.42-7.28,1.07-1.86-2.59Z"/>
  </g>
</svg>