<?xml version="1.0" encoding="UTF-8"?>
<svg id="Layer_2" data-name="Layer 2" xmlns="http://www.w3.org/2000/svg" viewBox="0 0 29.44 29.46">
  <defs>
    <style>
      .cls-1 {
        fill: #1e3c60;
      }

      .cls-2 {
        isolation: isolate;
      }
    </style>
  </defs>
  <g id="Layer_2-2" data-name="Layer 2">
    <g id="Layer_1-2" data-name="Layer 1-2">
      <g class="cls-2">
        <g class="cls-2">
          <path class="cls-1" d="M15.48,25.08c-.29,1.29-.5,2.8-.6,4.39-.21-1.59-.42-3.09-.81-4.39-5.1-.29-9.28-4.39-9.57-9.58-1.42-.32-2.91-.63-4.4-.72h-.1c1.59-.11,3.08-.28,4.5-.57.29-5.21,4.37-9.39,9.46-9.71.4-1.38.5-2.79.67-4.39v-.1c.14,1.59.35,3.11.74,4.49,5.2.32,9.28,4.4,9.68,9.5,1.31.4,2.8.78,4.39.78-1.59.1-3.08.22-4.39.61-.29,5.21-4.49,9.29-9.57,9.7ZM6.17,13.6c3.71-1.42,6.02-3.9,7.29-7.38-3.79.58-6.78,3.58-7.29,7.38ZM13.57,23.28c-1.38-3.61-3.9-5.99-7.4-7.29.6,3.79,3.61,6.78,7.4,7.29ZM14.77,21.77c.71-1.48,1.5-2.79,2.59-4,1.31-1.18,2.7-2.29,4.39-3-1.48-.68-2.77-1.59-4-2.69-1.18-1.2-2.27-2.69-3.08-4.39-.6,1.5-1.5,2.9-2.59,4-1.2,1.31-2.7,2.28-4.39,3.08,1.48.71,2.87,1.6,4,2.61,1.28,1.3,2.27,2.69,3.08,4.39ZM15.98,6.21c1.38,3.69,3.87,5.96,7.29,7.27-.6-3.79-3.61-6.69-7.29-7.27ZM23.27,15.99c-3.61,1.39-6.02,3.87-7.29,7.29,3.79-.5,6.79-3.5,7.29-7.29Z"/>
        </g>
      </g>
    </g>
  </g>
</svg>