<?xml version="1.0" encoding="utf-8"?>
<!-- Generator: Adobe Illustrator 24.3.0, SVG Export Plug-In . SVG Version: 6.00 Build 0)  -->
<svg version="1.1" id="Layer_1" xmlns="http://www.w3.org/2000/svg" xmlns:xlink="http://www.w3.org/1999/xlink" x="0px" y="0px"
	 width="512" height="512" viewBox="0 0 512 512" style="enable-background:new 0 0 512 512;" xml:space="preserve">
<style type="text/css">
	.st0{fill:#FFFFFF;}
</style>
<g transform="translate(0,0)">
	<path class="st0" d="M324.7,6c-0.5,0-1.1,0-1.6,0c-1.5,0.1-2.1,0.3-3.2,0.4L218.7,165.2c1.7,6.9,3.2,13.8,5.1,20.2l-18.9,5.2
		c-9.6-35-15.8-74.8-27.9-99.8c-6.1-12.5-13.2-20.8-21.7-24.5c-7-3-16.3-3.4-29.1,0.6c18.2,52.7,25.5,107.8,35.3,151.5
		c5.2,23.1,11.2,43,19.1,57.2c8,14.3,17.2,22.7,30.7,26l-4.7,19.1c-19.3-4.8-33.4-18.2-43.2-35.4c-4.4-7.8-8.1-16.6-11.3-26
		c-32.4,35.5-79.1,74.3-144.9,103.7V506H155c23.6-44.8,47-83.3,69.7-111.4c23.6-29.2,46.8-48.5,71.9-48.9h-0.2l3.1-0.1l-29.9-86.2
		l22.3-7.4l-35.4-83.2l72.7,97.8l-29.4,7.9l33,69.9l157.4-5.9c4.5-5.8,8-15.3,8.5-25.2c0.5-9.5-1.9-18.2-5.4-23.3l-125.9,3.6
		c0.1-8.7-0.4-17.3-1.7-26l137.1-47.7c2.6-6.7,2.8-16.3,0-25.4c-2.7-8.8-8-16.1-13.1-19.8l-137.1,46.3c-3.7-8.7-8-17.1-12.8-25
		l114.1-81.5c0-6.4-2.7-15.3-8.2-22.7c-5.7-7.6-13.3-13.1-20.1-14.9l-115.2,83.5c-6.7-6-14-11-21.5-15l75-117.7
		c-2.3-4.7-7.2-9.9-14-14C342.2,9,332.6,6.1,324.7,6L324.7,6z M315.3,360.2c-3.8,53.8-33.5,70.1-33.5,100.1
		c0,14.8,16.3,28.1,33.5,28.1c16.8,0,34.2-13.2,34.2-28.8C349.5,428.4,320.1,414,315.3,360.2L315.3,360.2z"/>
</g>
</svg>
