<?xml version="1.0" encoding="utf-8"?>
<!-- Generator: Adobe Illustrator 24.3.0, SVG Export Plug-In . SVG Version: 6.00 Build 0)  -->
<svg version="1.1" id="Layer_1" xmlns="http://www.w3.org/2000/svg" xmlns:xlink="http://www.w3.org/1999/xlink" x="0px" y="0px"
	 width="512" height="512" viewBox="0 0 512 512" style="enable-background:new 0 0 512 512;" xml:space="preserve">
<style type="text/css">
	.st0{fill:#FFFFFF;}
</style>
<g transform="translate(0,0)">
	<path class="st0" d="M418.9,63.5l26.6,26.6L87,448.5l-26.6-26.6L418.9,63.5z M160.7,255.6c0-52.6,42.7-95.3,95.3-95.3
		c10.9,0,21.8,1.9,32,5.6l47.2-47.2c-25.6-8.2-52.3-12.3-79.3-12.2c-31.3,0.1-62.5,5.9-91.8,17c-14.6,5.6-28.7,12.4-42.3,20.2
		c-13.2,7.7-25.9,16.4-37.9,25.9c-11.2,8.9-22,18.6-31.9,28.8c-8.7,8.8-16.9,18-24.6,27.5l-4.9,6.1l-4.3,5.8
		c-2.6,3.5-4.9,6.7-6.7,9.5c-1.9,2.6-3.2,5-4.2,6.3L6,255.7l1.5,2.2c1,1.5,2.3,3.7,4.2,6.3c1.9,2.6,4.1,6,6.7,9.5l4.3,5.8l4.9,6.1
		c7.7,9.6,16,18.8,24.6,27.5c10,10.3,20.7,19.8,31.9,28.8c5.2,4.1,10.5,8.1,16.1,12l66-66C162.5,277.5,160.7,266.6,160.7,255.6
		L160.7,255.6z M504.5,253.4c-1-1.5-2.3-3.8-4.2-6.4c-1.9-2.5-4.1-6-6.7-9.5c-2.6-3.7-5.7-7.6-9.1-11.8c-7.7-9.7-16-18.8-24.6-27.6
		c-10.1-10.3-20.7-19.9-31.9-28.9c-6.2-4.9-12.6-9.6-19.1-14.1l-64.6,64.6c19.9,48.7-3.4,104.4-52.1,124.3c-23.1,9.5-49,9.5-72.2,0
		L172.9,391c26.8,9.1,54.9,13.8,83.1,13.9c31.3,0.1,62.5-5.5,91.8-16.6c14.6-5.6,28.7-12.3,42.3-20.1c13.2-7.7,25.9-16.3,37.9-25.9
		c11.2-9,22-18.6,31.9-28.9c8.7-8.8,16.9-18.1,24.6-27.6c3.4-4.2,6.4-8.1,9.1-11.8c2.6-3.5,4.9-6.8,6.7-9.5c1.9-2.7,3.2-5,4.2-6.4
		l1.5-2.2L504.5,253.4z"/>
</g>
</svg>
