<?xml version="1.0" encoding="utf-8"?>
<!-- Generator: Adobe Illustrator 24.3.0, SVG Export Plug-In . SVG Version: 6.00 Build 0)  -->
<svg version="1.1" id="Layer_1" xmlns="http://www.w3.org/2000/svg" xmlns:xlink="http://www.w3.org/1999/xlink" x="0px" y="0px"
	 width="512" height="512" viewBox="0 0 512 512" style="enable-background:new 0 0 512 512;" xml:space="preserve">
<style type="text/css">
	.st0{fill:#FFFFFF;}
</style>
<g transform="translate(0,0)">
	<path class="st0" d="M154.6,6L154.6,6l54.3,199.9c7.3-3.3,15.3-6.2,23.6-8.8c9.3-2.7,18.8-4.9,27.8-6L209.9,6H154.6z M404.3,197.4
		c-13.6,16-50.8,33-95.6,47.7c1.7,17.1,2.8,36.5,2.8,55.5c0,19.4-1.2,38.1-4.4,53.2c-1.7,7.6-3.7,14.3-7,20
		c-3.2,5.8-8.1,11-15.1,12.9c-7,1.9-13.9-0.3-19.5-3.6c-5.8-3.3-10.9-8.1-16.2-13.9c-10.4-11.5-20.9-27.1-30.8-43.9
		c-9.9-16.9-18.9-34.7-26.3-50.7c-47.4,8.8-88.6,12.2-106.2,6.5C114.7,387,160.5,464,211.2,506h167.1
		C427.4,451.3,442.9,339.5,404.3,197.4L404.3,197.4z M271.3,209.9c-0.8,0-1.6,0-2.4,0.1c-9.1,0.5-20.1,2.6-30.9,5.9
		c-10.7,3.2-21.2,7.5-29.2,11.8c-5.5,2.9-9,5.8-11.3,7.8c5.5,16.5,20.4,50.6,37.7,80.1c9.4,16.1,19.4,30.9,28.3,40.5
		c4.4,4.9,8.6,8.4,11.6,10.3c3.1,1.9,4.5,1.7,4.8,1.7c0.3-0.1,1.5-0.7,3.2-3.7c1.8-3,3.5-8.1,5-14.6c2.7-12.8,4-30.6,4-49.1
		c0-34.8-4.4-72.6-8.2-89C281.2,210.6,276.8,209.9,271.3,209.9L271.3,209.9z"/>
</g>
</svg>
