<?xml version="1.0" encoding="utf-8"?>
<!-- Generator: Adobe Illustrator 24.3.0, SVG Export Plug-In . SVG Version: 6.00 Build 0)  -->
<svg version="1.1" id="Layer_1" xmlns="http://www.w3.org/2000/svg" xmlns:xlink="http://www.w3.org/1999/xlink" x="0px" y="0px"
	 width="512" height="512" viewBox="0 0 512 512" style="enable-background:new 0 0 512 512;" xml:space="preserve">
<style type="text/css">
	.st0{fill:#FFFFFF;}
</style>
<g transform="translate(0,0)">
	<path class="st0" d="M309.2,6l24.4,111.9L214.4,86.7L267.5,196L83.3,79.1c-5.2,6.3-10.1,13.1-14.6,20
		C31,155.9,13.6,231.5,12.4,304.2c52.5,25.7,83.6,52.6,96.9,80.6c12,25.2,7.1,51.1-8.3,71c33,30.6,89.9,49.3,148.1,50.2
		c58.7,1,117.8-15.8,155.3-50.8c-7.9-9-13.6-18.8-16.4-29.3c-3.6-14.3-1.3-29.5,6.8-43.6c15.4-26.9,49.3-51.5,104.8-78.1
		c-1.2-68.9-18.2-144.3-55.7-202.1C413.5,54.9,370.1,19.1,309.2,6L309.2,6z M152.9,227.1c36.3,0,65.8,29.4,65.8,65.8
		s-29.4,65.8-65.8,65.8s-65.8-29.5-65.8-65.8S116.6,227.1,152.9,227.1z M348.6,227.1c36.3,0,65.8,29.4,65.8,65.8
		s-29.4,65.8-65.8,65.8s-65.8-29.4-65.8-65.8S312.3,227.1,348.6,227.1z M250.8,339.9c18,37.9,32.3,76,39.4,113.9
		c-19.3,16.9-54,19.3-78.7,0C221,415.7,232.5,377.7,250.8,339.9z"/>
</g>
</svg>
