<?xml version="1.0" encoding="utf-8"?>
<!-- Generator: Adobe Illustrator 24.3.0, SVG Export Plug-In . SVG Version: 6.00 Build 0)  -->
<svg version="1.1" id="Layer_1" xmlns="http://www.w3.org/2000/svg" xmlns:xlink="http://www.w3.org/1999/xlink" x="0px" y="0px"
	 width="512" height="512" viewBox="0 0 512 512" style="enable-background:new 0 0 512 512;" xml:space="preserve">
<style type="text/css">
	.st0{fill:#FFFFFF;}
</style>
<g transform="translate(0,0)">
	<path class="st0" d="M334.1,234.5l66.5-87.5l45.3,34.5l-66.5,87.6L334.1,234.5z M320.5,224.5l70.7-93.1l-47.7-36.1l-70.7,93.1
		L320.5,224.5z M291.4,120.9L271,162.8l60.4-79.4l-45-34.2L248,99.8L291.4,120.9z M269.5,43.5L220.2,6l-44.4,58.5l56.7,27.7
		L269.5,43.5z M382.7,292.7L235.6,184l-10.4,1l4.8,2.1l65.7,146.5l-17.5,2.3l-61-135.9l-42.3-18.8l-4.2-32.6l41.7,20.5l38.5-3.5
		l18-36.8L151.4,71.5l-85.4,119L173,351.9L149.1,506h196.9V379.3l37.3-51.8l11.3-50.7L382.7,292.7z"/>
</g>
</svg>
