<?xml version="1.0" encoding="utf-8"?>
<!-- Generator: Adobe Illustrator 24.3.0, SVG Export Plug-In . SVG Version: 6.00 Build 0)  -->
<svg version="1.1" id="Layer_1" xmlns="http://www.w3.org/2000/svg" xmlns:xlink="http://www.w3.org/1999/xlink" x="0px" y="0px"
	 width="512" height="512" viewBox="0 0 512 512" style="enable-background:new 0 0 512 512;" xml:space="preserve">
<style type="text/css">
	.st0{fill:#FFFFFF;}
</style>
<g transform="translate(0,0)">
	<path class="st0" d="M142.3,6l48.9,90.9l-155-30.9l117,93.3l-101,23.1l125.6,34.4l-57.3,51.9l95.1-7.6c-2.1-10-3-20.4-3-31.1
		c0-35,11.1-66.9,29.5-90.5s44.6-38.8,73.8-38.8c0.4,0,1,0,1.4,0l-28.5-89.4L264,82.7L142.3,6L142.3,6z M315.7,120.6
		c-22.5,0-42.9,11.5-58.3,31.2s-25.3,47.5-25.3,78.3c0,31.9,11,60.8,27.3,80.6l10.6,12.9l-16.5,3c-47,8.9-69.1,26.9-81.9,57.1
		c-12,28.4-14.6,69.6-14.9,122.3h48.8v-53.7h19.8V506h177.2v-53.7h19.8V506h53.4c0-53.1-0.6-95.2-11.5-124
		c-11.6-30.7-33.2-48.7-84.4-56.8l-16.8-2.6l10.5-13.2c15.6-19.6,25.4-48,25.4-79.2c0-30.9-9.9-58.7-25.3-78.3
		C358.6,132.1,338.2,120.6,315.7,120.6L315.7,120.6z"/>
</g>
</svg>
