<?xml version="1.0" encoding="utf-8"?>
<!-- Generator: Adobe Illustrator 24.3.0, SVG Export Plug-In . SVG Version: 6.00 Build 0)  -->
<svg version="1.1" id="Layer_1" xmlns="http://www.w3.org/2000/svg" xmlns:xlink="http://www.w3.org/1999/xlink" x="0px" y="0px"
	 width="512" height="512" viewBox="0 0 512 512" style="enable-background:new 0 0 512 512;" xml:space="preserve">
<style type="text/css">
	.st0{fill:#FFFFFF;}
</style>
<g transform="translate(0,0)">
	<path class="st0" d="M321.8,6c-17.3,35.9-39.9,62.5-65.5,62.5c-25.5,0-48.8-26.3-66.1-61.9c0.4,40.9-10.1,94.5-32.1,109.2
		c-22.1,14.8-51.6-12.5-81.9-33.4c18.2,35.4,43.8,70.1,31,95.9c-12.7,25.5-61.5,37.4-96.5,37c30.5,20,81.9,47.6,81.9,77.1
		c0,29.5-51.5,55.8-81.9,75.9c35.1-0.4,83.8,12.1,96.5,37.6c12.7,25.6-9.4,58.5-35.1,88.9c46.6-16,67.7-6,88.7,11.2h33
		c-44.4-36.8-74.9-112-74.9-199.1c0-123.3,61.2-223.4,136.6-223.4s136.6,100,136.6,223.4c0,87-30.5,162.2-74.9,199.1h28.4
		c20.6-15.2,41.3-26.7,93.2-9.7c-27.3-31.4-43.9-64.9-31.2-90.3c12.7-25.6,58.9-38.1,94.1-37.6c-30.6-20-78.3-46.3-78.3-75.9
		c0-29.5,47.8-57,78.3-77.1c-35.2,0.5-81.4-11.4-94.1-37c-12.8-25.8,10.4-60.6,28.5-95.9c-30.4,20.9-59.9,48.3-81.9,33.4
		C331.9,101,321.4,47.1,321.8,6L321.8,6z M250.1,103.4c-20.3,2.6-38.8,26.6-38.8,57.6c0,17.1,5.9,32.2,14.6,42.7l10.5,12.7l-16.2,3
		c-11.2,2.1-19.4,8-26.6,17.8c-7,9.7-12.5,23.2-16.2,38.8c-6.8,28.2-8.4,62.6-8.6,93h37.5l0.7,9l9.5,127.4h79.2l8.4-127.3l0.6-9.1
		h35.7c0-30.8-0.5-65.6-6.6-94.1c-3.4-15.7-8.6-29.2-15.7-38.8c-7.1-9.6-15.7-15.4-28.3-17.5l-16.6-2.5l10.5-13.1
		c8.3-10.4,13.9-25.3,13.9-42c0-33.1-20.7-57.5-43.1-57.5C251.8,103.5,250.3,103.4,250.1,103.4L250.1,103.4L250.1,103.4z"/>
</g>
</svg>
