<?xml version="1.0" encoding="utf-8"?>
<!-- Generator: Adobe Illustrator 24.3.0, SVG Export Plug-In . SVG Version: 6.00 Build 0)  -->
<svg version="1.1" id="Layer_1" xmlns="http://www.w3.org/2000/svg" xmlns:xlink="http://www.w3.org/1999/xlink" x="0px" y="0px"
	 width="512" height="512" viewBox="0 0 512 512" style="enable-background:new 0 0 512 512;" xml:space="preserve">
<style type="text/css">
	.st0{fill:#FFFFFF;}
</style>
<g transform="translate(0,0)">
	<path class="st0" d="M255.9,6c-14.1,0-27.4,8.1-37.8,22.9c-10.3,14.8-17.2,36-17.2,59.8c0,23.6,6.8,44.9,17.2,59.7
		c10.3,14.8,23.7,22.9,37.8,22.9c14.1,0,27.4-8.1,37.8-22.9c10.3-14.8,17.3-36,17.3-59.7s-6.8-44.9-17.2-59.8
		C283.2,14.1,270,6,255.9,6L255.9,6z M97.8,51.3C76.5,51.9,72.5,66,64.4,81.9C40,129.5,6,255.3,6,255.3l168.8-5.8l30.6,144.8
		l-24,111.6h156.8l-23.4-111.5l25.5-144.7l165.7,5.6c0,0-34-125.7-58.5-173.4c-8.2-15.9-12.1-30-33.5-30.6
		c-18.8,0-34.1,16.4-34.1,36.5s15.2,36.5,34.1,36.5c3.9,0,7.6-1,11.1-2.2l8.4,78.3l-123-42.2c-0.3,0.5-0.6,0.9-0.9,1.4
		c-13.1,18.7-32.2,31.2-53.9,31.2s-40.8-12.6-53.9-31.2c-0.3-0.4-0.6-0.9-0.9-1.3L78.4,200.5l8.4-78.3c3.5,1.3,7.2,2.2,11.1,2.2
		c18.8,0,34.1-16.4,34.1-36.5C132,67.7,116.7,51.3,97.8,51.3L97.8,51.3z"/>
</g>
</svg>
