<?xml version="1.0" encoding="utf-8"?>
<!-- Generator: Adobe Illustrator 24.3.0, SVG Export Plug-In . SVG Version: 6.00 Build 0)  -->
<svg version="1.1" id="Layer_1" xmlns="http://www.w3.org/2000/svg" xmlns:xlink="http://www.w3.org/1999/xlink" x="0px" y="0px"
	 width="512" height="512" viewBox="0 0 512 512" style="enable-background:new 0 0 512 512;" xml:space="preserve">
<style type="text/css">
	.st0{fill:#FFFFFF;}
</style>
<path class="st0" d="M303.8,6l-62.6,37.3l8.6,14.6l38.8-23.1l-11.2,72.2l6.9,11.7l64.9-38.7l-8.6-14.6l-41.1,24.4l11.2-72.2L303.8,6
	z M141,43.5C62.7,87,14.1,169.5,14,259c0,136.4,110.5,247,247,247c109.7-0.1,206.2-72.5,237-177.7c-43.3,45.8-103.4,71.8-166.4,71.9
	c-126.7,0-229.4-102.7-229.4-229.4C102.3,125.4,115.8,81.2,141,43.5z M410.6,100.8L403,119l48.6,20.3l-75.3,39.6l-6.1,14.6l81.2,34
	l7.6-18.2l-51.5-21.5l75.3-39.6l6.1-14.6C488.9,133.6,410.6,100.8,410.6,100.8z M283.7,171.4L175.9,210l8.9,25l66.8-23.9L212.5,319
	l7.1,19.9L331.5,299l-8.9-25l-70.8,25.4l39.1-107.9L283.7,171.4L283.7,171.4z"/>
</svg>
