<?xml version="1.0" encoding="utf-8"?>
<!-- Generator: Adobe Illustrator 24.3.0, SVG Export Plug-In . SVG Version: 6.00 Build 0)  -->
<svg version="1.1" id="Layer_1" xmlns="http://www.w3.org/2000/svg" xmlns:xlink="http://www.w3.org/1999/xlink" x="0px" y="0px"
	 width="512" height="512" viewBox="0 0 512 512" style="enable-background:new 0 0 512 512;" xml:space="preserve">
<style type="text/css">
	.st0{fill:#FFFFFF;}
</style>
<g transform="translate(0,0)">
	<path class="st0" d="M5.5,12.6C120.9,85.6,227.6,143,351,156c43.7,4.6,51.3,37.5,34,75.2c-28.5,62,17.6,154,120.5,209.7
		c-6.4,30-49.7,55.3-76.3,46.4c-22.2-46.3-56.8-95.2-94.2-81.9c-76.6,27.1-155.5,32.9-209,3.7c71.1-9.6,138.7-28.5,198.3-58.3
		c-107.6,16.1-235.1,16.5-283.3-37.5c97.7,3.9,176.9-6,265.3-28.1C188.4,274.3,58.9,252.8,22.4,180.6
		c86.9,27.1,203.4,37.2,282.2,37.7C181.9,187.4,16.7,102.7,5.5,12.6L5.5,12.6z"/>
</g>
</svg>
