<?xml version="1.0" encoding="utf-8"?>
<!-- Generator: Adobe Illustrator 24.3.0, SVG Export Plug-In . SVG Version: 6.00 Build 0)  -->
<svg version="1.1" id="Layer_1" xmlns="http://www.w3.org/2000/svg" xmlns:xlink="http://www.w3.org/1999/xlink" x="0px" y="0px"
	 width="512" height="512" viewBox="0 0 512 512" style="enable-background:new 0 0 512 512;" xml:space="preserve">
<style type="text/css">
	.st0{fill:#FFFFFF;}
</style>
<path class="st0" d="M243.9,52.2c0-6.4-0.7-35.1,0.9-39.1c3.2-8.2,14.7-9.4,20-2.6c2.7,3.5,2.3,8.5,2.3,12.7v29
	C382.9,61.4,452.4,155,455.6,240.8h28.9c3.6,0,11.4-0.3,14.5,0.9c8.2,3.2,9.4,14.8,2.6,20c-2.9,2.2-6.2,2.2-9.9,2.3h-36.2
	c-3.8,91.3-73.7,183.4-188.3,191.5v39.2c-1.5,6-5.1,11.3-11.8,11.3s-10.4-5.4-11.8-11.3v-39.2C93.4,443.7,51.9,314.4,53.2,264.3
	l-34-0.2c-17.4-1.6-17.6-20.6-1-23.5h34.7C57.4,141.2,144.2,54.3,243.9,52.2L243.9,52.2z M243.9,75.3
	c-56.2,5.1-151.9,39.9-168.3,165.4h53.6c4.9-59.7,55.7-106.9,114.5-111.7C243.9,129.1,243.9,75.3,243.9,75.3z M266.9,75.3L267,129
	c58.9,4.8,109.7,52,114.5,111.7c0,0,50.2,0.7,50.8,0C422.7,160.7,367.5,86.2,266.9,75.3L266.9,75.3z M243.6,152.9
	c-44.3,3.7-85,42.9-89.6,87.8c5,0,16.1-0.7,20.2,1.5c8.8,4.7,8.8,15.5,0,20.2c-4.2,2.2-16.5,1.5-21.7,1.5c0,0,5.5,79.6,91.3,94.3
	l-0.2-19.3c5-9.4,19.2-9.5,23,0.4l0.4,18.9c58.6-6.4,89.9-60.2,90.9-94.4c-7.7,0-14.8,0.5-14.8,0.5c-18-4.5-13.2-19.5-2.3-23.3
	c0,0,12.8-0.6,16.9-0.6c-11.7-64.3-66.6-85.9-90.5-87.8c0,4.4,1.6,16.3-2.5,22.9c-6.9,6.4-13.2,5.7-18.1,0.1
	C241.7,168.7,243.6,160.8,243.6,152.9L243.6,152.9z M245.3,199.3c21-2.9,40.8,2.9,54.6,19.6c21.5,25.9,14.5,69.7-15.4,86.1
	c-12.1,6.6-20.1,6.9-33.4,6.7c-39.4-0.5-62.4-43.5-48.6-78.4C210.3,213.6,225.1,203.8,245.3,199.3L245.3,199.3z M129.3,264H75.6
	c6.9,100.6,89.5,166.3,168.2,168.3v-50.8C184.5,380.2,129.4,323.1,129.3,264L129.3,264z M432.4,264h-50.8
	c-0.2,59.1-55.3,116.2-114.5,117.6v50.8C370.2,421.6,426.6,342.9,432.4,264L432.4,264z"/>
</svg>
