<?xml version="1.0" encoding="utf-8"?>
<!-- Generator: Adobe Illustrator 24.3.0, SVG Export Plug-In . SVG Version: 6.00 Build 0)  -->
<svg version="1.1" id="Layer_1" xmlns="http://www.w3.org/2000/svg" xmlns:xlink="http://www.w3.org/1999/xlink" x="0px" y="0px"
	 width="512" height="512" viewBox="0 0 512 512" style="enable-background:new 0 0 512 512;" xml:space="preserve">
<style type="text/css">
	.st0{fill:#FFFFFF;}
</style>
<path class="st0" d="M6,6v98.5l21.4,14.9L34,86l52.7,34.8L64,26.7l30.9,14.6L84.2,6H6L6,6z M131.2,6l20.7,43.9L108,98.8h43l4.9,41.5
	l22-26.9l10.8,64.7l40.5-59.3l26.4,34.2l25.3-95.3l35.4,22.1l0.6-53.1l49.8,25.6l-3.1,70.6l29.7-43.8l13.4,23.1l62.9-67.2l1.3,46.2
	L506,36.8V6H131.2L131.2,6z M481.3,328l-2.8,36.7l-84.1-4.2l81.9,69.2l-41.7,9.9l71.4,28.2V357.7L481.3,328L481.3,328z M344.2,340.6
	l-68.4,89.2L263,385.8l-30.5,101.4L180,416.4L164.7,506h269.2l-6.7-36l-55.6,20.8l-9.8-55.6l-17.7,14.1L344.2,340.6L344.2,340.6z
	 M29.8,356.4L6,377.2V506h135.9L125,426l-14.6,17.5L84.7,387l-34.8,56.7L29.8,356.4L29.8,356.4z"/>
<g>
	<path class="st0" d="M86.9,207.7c-20.4,0.8-41.7,5.4-62.6,14c22.2,58.8,81.7,116.8,184.9,58.7c-11.3-32.2-36.3-54.3-67.8-65.1
		c-1.2-0.5-2.4-0.8-3.6-0.8c-6.1,0-10.9,5.8-10.9,13c0,7.1,4.9,13,10.9,13c0.1,0,0.2,0,0.3,0c-3.7,26.7-9.8,49.1-15.1,49.5
		C111,290.2,94,250.6,86.9,207.7L86.9,207.7z"/>
	<path class="st0" d="M425.1,207.7c-7.1,43.1-24.1,82.6-36,82.1c-5.6-0.4-11.9-24.6-15.5-52.6c3.3,0.8,7.1,0.9,10.8,0.4
		c11.3-1.6,19.6-8.6,18.7-15.6l0,0c-1-7.1-10.9-11.5-22.2-10c-3.7,0.5-7.1,1.7-10.2,3.2c-31.5,10.8-56.5,32.9-67.9,65.1
		c103.1,58.2,162.7,0.1,184.9-58.8C466.8,213,445.6,208.4,425.1,207.7L425.1,207.7z"/>
</g>
</svg>
