<?xml version="1.0" encoding="utf-8"?>
<!-- Generator: Adobe Illustrator 24.3.0, SVG Export Plug-In . SVG Version: 6.00 Build 0)  -->
<svg version="1.1" id="Layer_1" xmlns="http://www.w3.org/2000/svg" xmlns:xlink="http://www.w3.org/1999/xlink" x="0px" y="0px"
	 width="512" height="512" viewBox="0 0 512 512" style="enable-background:new 0 0 512 512;" xml:space="preserve">
<style type="text/css">
	.st0{fill:#FFFFFF;}
</style>
<g transform="translate(0,0)">
	<path class="st0" d="M6,8.1v112.4l161.5,85.9L93.2,8.1H6L6,8.1z M121.5,8.1l125.3,152.3l5.6-152.3C252.3,8.1,121.5,8.1,121.5,8.1z
		 M295.3,8.1l43.1,140l63.9-140H295.3z M442.7,8.1l-15.3,164L506,99V8.1H442.7z M6,166.5v102.5l105.1,10.4L6,166.5L6,166.5z
		 M436.6,208.9c-18.8-0.1-40.8,9.6-58.8,27.5c-5.6,5.6-10.4,11.5-14.3,17.7c-98.6-59.4-347,80.3-188.3,199.6H49.8l-27.8,50.2h270.5
		l-93.1-108.6c25.5-28.1,71-46,102.1-47.4c14.6,47.5,38.2,119.3,75.5,156h64c-45.3-48.9-80.5-114.7-86.1-189.2
		c1.7,3.4,3.9,6.5,6.6,9.3c19.6,19.6,58.9,12.2,87.6-16.5c28.7-28.7,36.1-68,16.5-87.6C458,212.5,447.9,209,436.6,208.9L436.6,208.9
		z M6,330.5v62.6l81.7-25.2L6,330.5L6,330.5z"/>
</g>
</svg>
