<?xml version="1.0" encoding="utf-8"?>
<!-- Generator: Adobe Illustrator 24.3.0, SVG Export Plug-In . SVG Version: 6.00 Build 0)  -->
<svg version="1.1" id="Layer_1" xmlns="http://www.w3.org/2000/svg" xmlns:xlink="http://www.w3.org/1999/xlink" x="0px" y="0px"
	 width="512" height="512" viewBox="0 0 512 512" style="enable-background:new 0 0 512 512;" xml:space="preserve">
<style type="text/css">
	.st0{fill:#FFFFFF;}
</style>
<g transform="translate(0,0)">
	<path class="st0" d="M262.9,33.7c7.7,0.8,14.7,3.6,21.5,7.2L298,16.8c-9.5-5.7-20.6-9-30.7-10.8C266,15.2,264.5,24.4,262.9,33.7z
		 M249.5,6.4c-11.2,0.8-20.9,3.7-31.3,8.9l12.3,24.8c7.5-2.8,14.3-5.5,21.7-6L249.5,6.4z M192.4,34.1c-7.4,7.7-14.6,17.3-18.9,25.2
		l24.1,13.5c4.6-7,8.8-13.5,14.3-18.9C205.6,47.3,198.6,40.8,192.4,34.1L192.4,34.1z M323,36.9l-20.8,18.4
		c5.7,5.9,9.8,12.8,13.8,19.8l24.9-12.5C335.6,53.3,329.3,44,323,36.9z M161.6,87.5c-3.1,10-4.9,21-5.7,30l27.5,2.6
		c0.9-9.2,2.1-15.9,4.5-24.5L161.6,87.5z M351.8,90.8c-8.9,2.7-17.8,5.1-26.9,7.2c1.7,8.3,3.2,17.5,4,24.6l27.7-1.5
		C355.5,110.8,354.1,100,351.8,90.8L351.8,90.8z M183.9,145l-27.4,2.8c0.6,10.4,3.8,21.2,6.3,29.8l26.4-8.5
		C186.7,160.7,185,153,183.9,145z M328.1,147.6c-1.2,8.5-3.5,16.6-6,24l26,9.8c3.4-10,6.1-20.8,7.4-29.7L328.1,147.6z M199.4,191.1
		c0,0-17.1,8-23.8,10c0,0,7.1,14.3,10.3,25.4c11.2-3.2,23-4.8,34.6-6.6C213.4,209.6,204.8,199.9,199.4,191.1L199.4,191.1z
		 M311.2,193.7c-6.3,9.4-13.7,17.8-20.6,26.6c11.5,3.1,23.7,4,35,8.2c0,0,6.5-19.1,9.1-26.3C326.1,199.3,311.2,193.7,311.2,193.7
		L311.2,193.7z M149.6,212.5c-9.8,6.5-16.5,12-23.8,19.8l20,19.1c6.8-6.6,11.5-11.1,18.7-15.5L149.6,212.5z M362.7,216.7l-16,22.6
		c6.8,4.6,12.9,10.3,18.3,16.5l20.6-18.6C377.5,228.8,371.5,222.6,362.7,216.7z M107.4,257.4c-5.2,8.5-9.4,17.5-12.9,26.7l25.8,10.3
		c2.9-8,6.6-15.8,11.1-23.1L107.4,257.4z M403.3,262.1l-24,13.7c4.2,7.5,8,15.4,11.2,23.4l25.7-10.5
		C412.6,279.4,408,270.7,403.3,262.1L403.3,262.1z M85.6,312.2c-2.3,9.2-4.5,18.9-5.7,28.5l27.3,4.2c1.2-8.8,3.2-17.4,5.2-26
		L85.6,312.2z M425.4,316.7l-26.9,7.1c2.6,8.5,3.8,17.1,5.7,25.8l27.3-4.6C429.9,335.5,428,326,425.4,316.7L425.4,316.7z
		 M76.7,369.3c-0.8,10.1-0.9,18.7-0.9,28.6h27.7c0.2-9.4,0.3-19.1,0.9-26.7L76.7,369.3z M435,373.6l-27.7,2.2
		c0.8,8.6,1.2,17.8,1.2,26.7l27.7-0.2C436,392,435.6,382.8,435,373.6z M104.3,424.9l-27.7,1.5c0.6,9.5,1.5,18.9,2.5,28.3l27.5-2.9
		C105.5,442.9,104.9,433.9,104.3,424.9z M407.6,429.2c-0.3,8.9-1.5,17.8-2.5,26.7l27.4,3.5c1.5-9.4,2.1-18.9,2.8-28.3L407.6,429.2z
		 M82.4,476.4c0.8,9.4,2.9,19.1,4.3,27.2h30.1v-27.7C105.5,475.5,94.1,476,82.4,476.4L82.4,476.4z M144.7,475.8
		c-0.2,9.5,0,18.3,0,27.7l28.5-0.8c-0.8-9.1-1.4-18-1.8-27H144.7z M337.5,475.8c-0.8,9.4-1.5,18.9-2.2,28.1L363,506l-0.3-30.3
		L337.5,475.8L337.5,475.8z M390.4,475.8v27.7h34.4c2-9.5,3.4-17.2,5.1-26.7C416.8,475.5,403.6,475.8,390.4,475.8z"/>
</g>
</svg>
