<?xml version="1.0" encoding="utf-8"?>
<!-- Generator: Adobe Illustrator 24.3.0, SVG Export Plug-In . SVG Version: 6.00 Build 0)  -->
<svg version="1.1" id="Layer_1" xmlns="http://www.w3.org/2000/svg" xmlns:xlink="http://www.w3.org/1999/xlink" x="0px" y="0px"
	 width="512" height="512" viewBox="0 0 512 512" style="enable-background:new 0 0 512 512;" xml:space="preserve">
<style type="text/css">
	.st0{fill:#FFFFFF;}
</style>
<g transform="translate(0,0)">
	<path class="st0" d="M219.9,6c-13.7,0-24.7,11-24.7,24.7v110.8c0,3.5,0.8,6.9,2.2,10.2c-0.4,5,0.8,10.1,3.3,14.4l43.5,74.6
		l-82.3,57.7l6.3-50.7c1-8.3-2.1-16.5-8.5-21.9l-69-85.4c-8.6-10.5-24.1-12.2-34.7-3.6l0,0l-9.6,7.7c-10.6,8.6-12.2,24.1-3.7,34.7
		l0,0l62.3,77l-11.7,93.7c-1.3,10.2,3.9,20.1,13,24.9l39.1,55.7c0.8,1.1,1.6,2.1,2.4,2.9c0.5,9.1,6,17.1,14.2,20.9l100.3,46.9
		c3.2,1.6,6.8,2.3,10.4,2.3c8,3.7,17.3,2.9,24.5-2.1l90.8-63.5c11.1-7.8,13.9-23.2,6.1-34.4l0,0l-7-10.1c-7.8-11.1-23.1-14-34.4-6.2
		L277.2,440l-61.5-28.8L341.3,323c2.2-1.6,4.2-3.5,5.8-5.8c6.9-2.2,12.5-7.4,15.2-14.2l38.8-95.3l91.5-46.7
		c12.1-6.2,17-21.1,10.7-33.2l0,0l-5.6-11c-6.2-12.1-21.1-17-33.2-10.7l0,0l-98.6,50.4c-4.3,2.2-7.9,5.7-10.3,9.9
		c-3.9,2.7-6.9,6.5-8.7,10.9l-28.5,70.1l-5.5-7.7c-0.4-3.2-1.5-6.3-3.1-9.2l-52.9-90.7V30.7c0-13.7-11-24.7-24.7-24.7l0,0H219.9
		L219.9,6z M70.4,381C35.9,380,7.1,407.2,6,441.6c0,0.6,0,1.3,0,1.9C6,478,34,506,68.5,506s62.5-28,62.5-62.5
		C131,409.7,104.1,382,70.4,381z"/>
</g>
</svg>
