<?xml version="1.0" encoding="utf-8"?>
<!-- Generator: Adobe Illustrator 24.3.0, SVG Export Plug-In . SVG Version: 6.00 Build 0)  -->
<svg version="1.1" id="Layer_1" xmlns="http://www.w3.org/2000/svg" xmlns:xlink="http://www.w3.org/1999/xlink" x="0px" y="0px"
	 width="512" height="512" viewBox="0 0 512 512" style="enable-background:new 0 0 512 512;" xml:space="preserve">
<style type="text/css">
	.st0{fill:#FFFFFF;}
</style>
<g transform="translate(0,0)">
	<path class="st0" d="M159.4,8.4c-34.2,0-66.7,8.6-93.1,25.3C36.2,52.8,14.1,83,7.9,121.8c-6.3,38.7,2.9,85.6,32.7,139.2
		c20.8,37.2,46.3,66.8,62.4,97.9c13,26.9,19.2,48.8,16.3,78.7c-15.3,3-27,16.4-27,32.6c0,18.3,14.8,33.3,33.2,33.3
		c18.5,0,33.3-14.9,33.3-33.3c0-13.8-8.4-25.5-20.3-30.7c1.1-10.6,1.1-20.7,0.1-30.5c9.7-11.3,20.8-17.1,34.8-18.9
		c15.3-2.1,34.2,0.7,55.8,8.5c5.4,10.2,10.2,20.9,14.4,32.5c-9.7,5.7-16,16.1-16,28c0,17.9,14.6,32.4,32.4,32.4
		c18,0,32.5-14.6,32.5-32.4c0-17.1-13.1-31.1-29.8-32.4c-4.2-12.1-9.1-23.4-14.6-34.1c10.6-10.4,28.8-17.5,49.8-21.6
		c23.1-4.5,48.8-5.7,70.5-6.3c7.3,6.7,14.6,13.8,21.6,21.2c-0.5,2.3-0.9,4.8-0.9,7.3c0,17.2,13.9,31,31,31c17.2,0,31-13.8,31-31
		c0-17.1-13.8-31-31-31c-7.2,0-13.9,2.5-19.1,6.7c-6.8-7-13.7-13.6-20.7-20c-1.1-51.4,13.9-91.7,39.6-124.7
		c9.3-2.3,18.9-5.7,28.7-10.2c6.1,6,14.4,9.7,23.4,9.7c18.3,0,33.2-14.8,33.2-33.3c0-18.3-14.8-33.2-33.2-33.2
		c-18.3,0-33.3,14.8-33.3,33.2c0,2.1,0.2,4.4,0.6,6.4c-8.2,3.6-15.9,6.3-23.4,8.4c-16.2-20.8-17.7-37.1-13.2-55.3
		c4.8-19.2,18.1-40.4,31.3-64.8c6.5-4.2,12.6-9.3,17.5-15.3c5.8,4.4,12.9,6.9,20.6,6.9c18.8,0,34-15.2,34-34S490.8,9,472,9
		c-18.8,0-34,15.2-34,34c0,3.5,0.6,7,1.6,10.2c-11.7,17.6-34.2,27.4-61.5,27.9c-27.8,0.5-59.8-9-86.5-28.5
		C249.7,27.7,201.4,8.9,159.4,8.4L159.4,8.4z M208.4,34.6c19.4,5,38.8,13,57.2,24.3l0.1,15.4c-18.6-13.9-38.8-28.5-56.8-37.8
		L208.4,34.6z M143.7,37.9l4.8,16.5c-11.7-5.5-23.9-9.8-36.9-12.7C122.8,39.5,133.3,37.6,143.7,37.9z M164.8,40.8
		c9.5,2.1,19.2,5.7,27.4,9.5l10.3,38.7c-9.7-7.6-19.4-14.7-29.8-21.2L164.8,40.8z M99.1,59.4c19.3,3.1,37.1,10.2,54,19.6l-11.3,19.5
		C127.2,84.5,112.3,70.5,99.1,59.4z M215.8,62.8c11.3,6.9,22.4,14.9,33.4,23.3c5.6,4.3,11.1,8.7,16.6,13.1l0.3,46.1
		c-12.2-11.1-24.7-23-37.6-34.4L215.8,62.8z M285.3,72.1C298.4,81,312.7,88,327,92.6l0.7,29.6c-13.6-9.1-27.7-20.5-42.4-32.3
		L285.3,72.1z M84,72.3c16.3,13.7,32,28.5,47.5,44.1l-14.6,25C102.8,117.7,91.2,94,84,72.3z M169.8,89.3c14.4,9.7,28,20.9,41.5,32.8
		c-2.1,6.3-12.8,23-16.8,29.4c-12.8-12.8-25.4-25.9-38.3-38.7L169.8,89.3z M404.9,97.5c-8.6,15.2-16.5,30.3-20.8,46.3
		c-11.7,0.2-23.8-3.3-36.5-9.8l-0.9-36.2C366.7,101.5,386.4,101.8,404.9,97.5L404.9,97.5z M46,105.9c0.3,22.9,3.9,43.2,9.9,61.6
		l-17-3.5C39.3,142.6,41.8,122.7,46,105.9z M79.9,115c6.7,14.3,14.5,27.4,22.8,39.5l-14.2,6.1C83.6,144.5,80.3,128.9,79.9,115z
		 M285.5,115.1c14.9,11.4,28,22,42.8,30.6l1.1,47.9c-14.7-7.9-29.2-18.7-43.6-30.8L285.5,115.1z M145.8,130.8
		c12.4,12.7,24.9,25.6,37.7,38.3l-17.2,27.6c-13.2-11.6-25.4-24.1-36.6-38.2L145.8,130.8z M227.1,136.3
		c13.6,12.2,26.2,24.1,38.1,34.7l-18,29.9c-13.3-11.1-26.1-23-38.5-35.2L227.1,136.3z M348.1,155.8c10.7,4.5,21.9,7.2,33.2,7.5
		c-0.2,14.7,3.7,30.1,13.5,45.6c-16.6,0.6-31.4-1.4-45.6-6.4L348.1,155.8z M114.7,170.6c10.4,13.1,21.6,24.9,33.5,35.8l-23.7,8.4
		c-11.2-12.3-20.7-23.8-27.7-36.6L114.7,170.6z M197.8,183.2c12.6,12.1,25.4,23.9,39.1,35.1l-13.1,21.6
		c-14.7-9.9-30.3-20.9-42.4-30.6L197.8,183.2z M280.4,183.7c14.7,11.8,29.8,22.4,46,30.4l-17.1,29.8c-16.5-9-32-19.3-46.7-30.7
		C268.6,203.4,274.5,193.5,280.4,183.7z M41.3,184.6l23.1,4.8C70,201.5,76.6,213,84,223.7l-28.8-2C48.8,210.6,43.9,198.3,41.3,184.6
		L41.3,184.6z M165.3,221.3c11.9,9.9,24.4,18.9,37.1,27.6l-25.4,8.6c-12.7-8.7-25.6-18.3-36.4-27.5L165.3,221.3z M344.5,221.7
		c15.7,5.4,34,7.5,48.7,6.9c-7.9,12.7-14.7,26.3-19.9,40.9c-16.5-4.4-32-10.1-46.6-16.7C332.7,242.4,338.7,232,344.5,221.7
		L344.5,221.7z M252.3,230.5c14.8,11.2,30.5,21.6,47.2,30.7l-11.3,19.7c-16.2-10.4-32.3-20.3-48-30.4
		C244.2,243.8,248.3,237.2,252.3,230.5L252.3,230.5z M119.4,237.4c11.3,11.1,24,18.9,34.6,27.8l-7,2.3
		C137.2,257.6,126.5,246.2,119.4,237.4L119.4,237.4z M69,242.3c10.2,0.6,20.2,1.6,30.4,2.1c7.9,9.3,16.3,18.8,23.5,26.4
		c-7.6,0.7-18.2,1-26.8,1.3C86.4,261.8,76.3,251.8,69,242.3L69,242.3z M222.9,262.7c15.8,10.2,31.8,20.1,47.9,30.4l-25.1,11.3
		c-15.8-11.8-33.7-23.7-48.2-33.2L222.9,262.7z M317,269.9c15.8,7.3,32.6,13.5,50.7,18.3c-3.4,14.1-5.7,28.8-6.3,44.4
		c-18.6-15.1-37.6-28.5-56.7-41.1C308.7,284.4,312.9,277.1,317,269.9L317,269.9z M174.1,279c17.9,12.1,35.6,23.3,51.1,34.6
		l-23.9,10.7c-12.7-14.7-26-28.1-39-41.3L174.1,279z M141.4,289.9c12.1,12.2,24.3,24.4,36,37.2h-26C140.2,314,128,302.2,116,290.8
		C124.5,290.7,132.9,289.9,141.4,289.9z M88.1,291.9c12.3,11.8,24.7,23.2,36.3,35.3h-17.4c-7.5-11.8-15.6-23.4-23.7-35.2
		C85,292,86.6,291.9,88.1,291.9z M290.4,305.7c19,12.6,37.9,25.8,56.2,40.4c-20.7,1.4-39.4,3.2-57.2,6.8
		c-6.3-12.9-15.8-24.1-27.1-34.6C271.6,314.1,281,309.9,290.4,305.7z M242.6,327.2c11.8,10,21.2,20.2,27.4,31.1
		c-11.8,4-22.7,9.4-31.5,17c-7.5-12.7-15.8-24.3-24.4-35.3L242.6,327.2z M118.7,346.7H142c6.5,8.3,12.7,17,17.8,26.4
		c-9.1,2.7-17.6,7-25.2,13.1C130.2,371.5,125.1,358.5,118.7,346.7z M166.5,346.7h27.8c7.1,8.7,13.9,17.7,20.3,27.3
		c-12.1-2.9-23.6-4.4-34.7-4C175.8,361.7,171,353.3,166.5,346.7L166.5,346.7z"/>
</g>
</svg>
