<?xml version="1.0" encoding="utf-8"?>
<!-- Generator: Adobe Illustrator 24.3.0, SVG Export Plug-In . SVG Version: 6.00 Build 0)  -->
<svg version="1.1" id="Layer_1" xmlns="http://www.w3.org/2000/svg" xmlns:xlink="http://www.w3.org/1999/xlink" x="0px" y="0px"
	 width="512" height="512" viewBox="0 0 512 512" style="enable-background:new 0 0 512 512;" xml:space="preserve">
<style type="text/css">
	.st0{fill:#FFFFFF;}
</style>
<g transform="translate(0,0)">
	<path class="st0" d="M295,8.3c18.4,74.4,25.4,256.2-36.3,333.6l11.8,20.3l0.1,0.3c1.8,3.6,2.3,7.3,2.1,10.9l0.2-0.1l-16.5,100.2
		l-20.3-54.9v85h7.4c57.8-18,102.5-25.3,182.4-3.8c58,15.5,100.2-27,70.2-112.2c-41-116.3-37.3-270,2-379.3L295,8.3L295,8.3z
		 M161.1,162c-13.8,0-31.3,4.7-48.3,14.5C95.9,186.2,83,199,76,210.8c-6.9,11.8-7.5,21.6-3.8,28.1c3.8,6.5,12.7,10.8,26.5,10.8
		s31.3-4.7,48.3-14.5c16.9-9.8,29.8-22.6,36.7-34.4c6.9-11.9,7.5-21.6,3.8-28.1C183.7,166.3,174.9,162,161.1,162L161.1,162z
		 M176.3,238.6c-5.9,4.9-12.5,9.5-19.6,13.6c-5.9,3.3-11.7,6.2-17.6,8.6l76.9,132.4l0.1,0.3c0.7,1.5,1,1.7,5,1.5
		c4.1-0.2,10.3-2.3,16.1-5.7s10.9-8,13.6-11.8c2.6-3.8,2.5-5.4,2.1-6.2L176.3,238.6L176.3,238.6z M189.1,385.5
		c-5.9,3.5-11.7,7.2-17.8,11c-35.3,22.3-71.3,40.2-98.2,47.2c-67.5-15.3-95.4,59.9-30,59.9l0,0h173.3V415l-14.7,37.4l-5-53.6
		L189.1,385.5L189.1,385.5z"/>
</g>
</svg>
