<?xml version="1.0" encoding="utf-8"?>
<!-- Generator: Adobe Illustrator 24.3.0, SVG Export Plug-In . SVG Version: 6.00 Build 0)  -->
<svg version="1.1" id="Layer_1" xmlns="http://www.w3.org/2000/svg" xmlns:xlink="http://www.w3.org/1999/xlink" x="0px" y="0px"
	 width="512" height="512" viewBox="0 0 512 512" style="enable-background:new 0 0 512 512;" xml:space="preserve">
<style type="text/css">
	.st0{fill:#FFFFFF;}
</style>
<g transform="translate(0,0)">
	<path class="st0" d="M445.5,12.7l-19,44.4l-51.2,6.3l44.3,27.1l1.5,14.2c-47.8-27.5-116.7-43.8-209-36.4L191,64.5l-25.4-40.4
		l0.5,41.9l-51.9,17.3l58,4.8l8.3,35.5l18-39.7l18.8-2.9c214.7,23.1,292.1,215.5,82,218.6l5.5-39.6l38.7-46l-54.1-26.3l-31.8-51.1
		l-41.7,43.3l-4.3,1.1C-22.8,153-47.3,301.9,90.2,377.3l-12.6,13.4l-49.5-15l34.8,41.5l-16,44.8l38.3-32.8l49.5,19L102.7,402l5-15.8
		c65.7,30.2,162,44.4,284.8,21.8C138.6,443.2,9,262.8,161.6,201.9l24.2,45.5l-4.2,60l59.2-10.4l20.3,8.2
		c229.7,108.1,313.1-88.3,180.9-187l15.1-23.4L506,77.3l-44.1-15.6L445.5,12.7L445.5,12.7z M22.4,64.6l5.1,27.4L7,115.3l28.6-3.4
		L54,136.5l0.7-31.1l26.1-18.8L46,84.8L22.4,64.6L22.4,64.6z M399.9,378.9l15,54.4l-33,43.3l52.2-13.4l35.4,36.1l-2.6-54.1
		l37.1-31.9l-54.3,1.7L399.9,378.9L399.9,378.9z"/>
</g>
</svg>
