<?xml version="1.0" encoding="utf-8"?>
<!-- Generator: Adobe Illustrator 24.3.0, SVG Export Plug-In . SVG Version: 6.00 Build 0)  -->
<svg version="1.1" id="Layer_1" xmlns="http://www.w3.org/2000/svg" xmlns:xlink="http://www.w3.org/1999/xlink" x="0px" y="0px"
	 width="512" height="512" viewBox="0 0 512 512" style="enable-background:new 0 0 512 512;" xml:space="preserve">
<style type="text/css">
	.st0{fill:#FFFFFF;}
</style>
<path class="st0" d="M82.2,6h96.8v354.8H82.2L82.2,6L82.2,6z M294.1,143.9l-86.7-1.4c0,0-0.8,2.6-1-9.1v-14.5
	c0.1-19.9,7.5-48,18.7-64.5C243.7,27,281.6,9.6,314.4,9.2c37.3-0.4,76.5,16.5,100.7,45.2c3.5,4.1,7,8.1,9.5,12.9
	c11.9,22.6,10.6,42.5,10.6,66.9c-0.1,36.3-27.4,71.5-50.2,97.8c-9.4,10.8-20.6,20.4-28.6,32.5c-15.7,23.8-11.1,56.1-11.3,83.5
	c-0.1,13.1-0.2,13.1-0.2,13.1l-96.6-0.2v-77.4c1.4-20.8,7.5-34.9,17.3-50.4c11.3-17.8,28-37.3,43.3-51.6c11-10.3,24.2-18,36.1-42.5
	c1.3-3.8,1.7-12,1.6-15.9c-0.5-18.4-23.4-35.4-39.9-21.2C295,112,294.1,129.4,294.1,143.9L294.1,143.9z M120.9,397.1
	c10.8-1.5,21.9-1.2,32.3,2.6c32.4,11.9,44.7,55.8,24.8,83.7c-12.6,17.7-28.3,22.8-49,22.6c-40.8-0.5-63.9-45.5-46.2-80.6
	C90.8,409.4,103.9,400.8,120.9,397.1L120.9,397.1z M287,397.1c10.8-1.5,21.9-1.2,32.3,2.6c32.4,11.9,44.7,55.8,24.8,83.7
	c-12.6,17.7-28.3,22.8-49,22.6c-40.8-0.5-63.9-45.5-46.2-80.6C256.9,409.4,270,400.8,287,397.1L287,397.1z"/>
</svg>
