<?xml version="1.0" encoding="utf-8"?>
<!-- Generator: Adobe Illustrator 24.3.0, SVG Export Plug-In . SVG Version: 6.00 Build 0)  -->
<svg version="1.1" id="Layer_1" xmlns="http://www.w3.org/2000/svg" xmlns:xlink="http://www.w3.org/1999/xlink" x="0px" y="0px"
	 width="512" height="512" viewBox="0 0 512 512" style="enable-background:new 0 0 512 512;" xml:space="preserve">
<style type="text/css">
	.st0{fill:#FFFFFF;}
</style>
<g transform="translate(0,0)">
	<path class="st0" d="M256,6c-46.9,0-89.8,26.9-121.7,72s-52,108.2-52,178c0,69.9,20.1,132.9,52,178s74.8,72,121.7,72
		c5.9,0,11.6-0.4,17.4-1.3h-5.5V398.3c-3.2-0.1-6.4-0.2-9.8-0.2c-44.9,0-82,11.3-94.3,26.4c-12.9-33.5,33.6-47.2,84.2-47.7
		c3.4,0,6.7,0,10.2,0.1c14.2,0.3,31.2,1.5,47.2,4V279.2c-8.2-4.5-14-10.6-15.2-18.1c36.6,12.5,100.3,3.5,110.8-3.7
		c-6.6,27.4-45.9,35.1-76,28.8v98.8c15.9,4.4,28.3,11,31.5,20.9h0.1v0.4c0.9,3,1,6.3,0,10v43.2c7.4-7.7,14.5-16.2,21.1-25.5
		c31.8-45.1,52-108.2,52-178c0-69.9-20.1-133-52-178C345.8,32.9,303,6,256,6L256,6z M167.1,192.1c33.2,0,60.8,22.6,66.7,52.3
		c-13.7-12.8-38.6-23.2-67.1-26.6c-23.1-2.7-43.9-0.2-58.2,6.1C120.3,204.8,142.1,192.1,167.1,192.1L167.1,192.1z M100.6,269.3
		c13.9,12.4,38.3,22.4,66,25.6c23.6,2.7,44.7,0,59.1-6.4c-11.7,19.1-33.6,32-58.7,32C134.3,320.5,107.1,298.5,100.6,269.3
		L100.6,269.3z M287.5,399.8v102.1c17.5-4.6,34.1-13.1,49.4-24.7v-64.4C324.7,406.7,307.5,402.1,287.5,399.8L287.5,399.8z"/>
</g>
</svg>
