<?xml version="1.0" encoding="utf-8"?>
<!-- Generator: Adobe Illustrator 24.3.0, SVG Export Plug-In . SVG Version: 6.00 Build 0)  -->
<svg version="1.1" xmlns="http://www.w3.org/2000/svg" xmlns:xlink="http://www.w3.org/1999/xlink" x="0px" y="0px"
	 viewBox="0 0 32 32" style="enable-background:new 0 0 32 32;" xml:space="preserve">
<style type="text/css">
	.st0{fill:#DDDDDD;}
	.st1{fill:#346CB5;}
	.st2{fill:#EE9A21;}
</style>
<g id="toggle_to_slow">
</g>
<g id="toggle_to_fast_1_">
</g>
<g id="slow_turn">
</g>
<g id="fast_turn_1_">
</g>
<g id="Layer_6">
	<path class="st0" d="M23.5,28c0.8,0,1.5-0.7,1.5-1.5S24.3,25,23.5,25v-0.5c0-2-0.8-3.9-2.2-5.3L18.1,16l3.2-3.2
		c1.4-1.4,2.2-3.3,2.2-5.3V7C24.3,7,25,6.3,25,5.5S24.3,4,23.5,4H22H10H8.5C7.7,4,7,4.7,7,5.5S7.7,7,8.5,7v0.5c0,2,0.8,3.9,2.2,5.3
		l3.2,3.2l-3.2,3.2c-1.4,1.4-2.2,3.3-2.2,5.3V25C7.7,25,7,25.7,7,26.5S7.7,28,8.5,28H10h12H23.5z M20.5,24.5V25h-9v-0.5
		c0-1.2,0.5-2.3,1.3-3.2l3.2-3.2l3.2,3.2C20,22.1,20.5,23.3,20.5,24.5z"/>
</g>
<g id="guides">
</g>
</svg>
