<?xml version="1.0" encoding="utf-8"?>
<!-- Generator: Adobe Illustrator 24.3.0, SVG Export Plug-In . SVG Version: 6.00 Build 0)  -->
<svg version="1.1" xmlns="http://www.w3.org/2000/svg" xmlns:xlink="http://www.w3.org/1999/xlink" x="0px" y="0px"
	 viewBox="0 0 32 32" style="enable-background:new 0 0 32 32;" xml:space="preserve">
<style type="text/css">
	.st0{fill:#DDDDDD;}
	.st1{fill:#346CB5;}
	.st2{fill:#EE9A21;}
</style>
<g id="toggle_to_slow">
</g>
<g id="toggle_to_fast_1_">
</g>
<g id="slow_turn">
</g>
<g id="fast_turn_1_">
</g>
<g id="Layer_6">
	<path class="st0" d="M8.5,4C7.7,4,7,4.7,7,5.5S7.7,7,8.5,7v0.5c0,2,0.8,3.9,2.2,5.3l3.2,3.2l-3.2,3.2c-1.4,1.4-2.2,3.3-2.2,5.3V25
		C7.7,25,7,25.7,7,26.5S7.7,28,8.5,28H10h12h1.5c0.8,0,1.5-0.7,1.5-1.5S24.3,25,23.5,25v-0.5c0-2-0.8-3.9-2.2-5.3L18.1,16l3.2-3.2
		c1.4-1.4,2.2-3.3,2.2-5.3V7C24.3,7,25,6.3,25,5.5S24.3,4,23.5,4L22,4H10H8.5z M11.5,7.5V7h9v0.5c0,1.2-0.5,2.3-1.3,3.2L16,13.9
		l-3.2-3.2C12,9.9,11.5,8.7,11.5,7.5z"/>
</g>
<g id="guides">
</g>
</svg>
